<svg width="512" height="512" version="1.1" viewBox="0 0 135.47 135.47" xmlns="http://www.w3.org/2000/svg">
 <g>
  <rect x=".051662" y=".051662" width="135.36" height="135.36" rx="15.264" ry="15.201" fill="#fff" image-rendering="auto" stroke="#98b954" stroke-width=".10333"/>
 </g>
 <g transform="matrix(.87899 0 0 .87899 8.1961 8.1961)" stroke-width="2.3716" aria-label=".C">
  <path d="m22.436 115.58q-3.3202 0-5.8104-2.3716-2.3716-2.4902-2.3716-5.8104 0-3.4388 2.3716-5.8104 2.4902-2.4902 5.8104-2.4902 3.4388 0 5.8104 2.4902 2.3716 2.3716 2.3716 5.8104 0 3.3202-2.3716 5.8104-2.3716 2.3716-5.8104 2.3716z" fill="#f0f"/>
  <path d="m89.908 114.87q-9.605 0-18.024-3.5574-8.3006-3.676-14.585-10.079-6.1662-6.5219-9.7236-15.178-3.4388-8.6563-3.4388-18.736 0-9.9607 3.4388-18.498 3.5574-8.6563 9.7236-15.06 6.2847-6.5219 14.585-10.198 8.3006-3.676 18.024-3.676 9.1307 0 15.653 2.3716 6.6405 2.3716 13.281 7.8263 0.94864 0.71148 1.423 1.5415 0.5929 0.71148 0.71148 1.5415 0.23716 0.71148 0.23716 1.7787 0 2.253-1.6601 3.7946-1.5415 1.423-3.7946 1.6601-2.253 0.11858-4.3875-1.5415-4.3875-3.7946-9.1307-5.8104-4.6246-2.0159-12.332-2.0159-6.9962 0-13.162 2.8459-6.1662 2.8459-10.909 7.8263-4.6246 4.9804-7.2334 11.621-2.6088 6.5219-2.6088 13.992 0 7.5891 2.6088 14.23 2.6088 6.5219 7.2334 11.502 4.7432 4.9804 10.909 7.8263 6.1662 2.7273 13.162 2.7273 6.0476 0 11.384-2.0159 5.4547-2.1344 10.435-5.8104 2.1344-1.5415 4.1503-1.3044 2.1344 0.11858 3.5574 1.6601 1.423 1.423 1.423 4.0317 0 1.1858-0.47432 2.3716-0.47432 1.0672-1.423 2.0159-6.4033 5.0989-13.755 7.7077-7.2334 2.6088-15.297 2.6088z" fill="#263a85"/>
 </g>
</svg>
